<svg xmlns="http://www.w3.org/2000/svg" xmlns:xlink="http://www.w3.org/1999/xlink" version="1.0" x="0" y="0" width="2400" height="1361.6593286638454" viewBox="80.20940124511719 74.05658447265625 179.58119750976562 101.88683868408204" preserveAspectRatio="xMidYMid meet" color-interpolation-filters="sRGB"><g><defs><linearGradient id="92" x1="0%" y1="0%" x2="100%" y2="0%"><stop offset="0%" stop-color="#fa71cd"></stop> <stop offset="100%" stop-color="#9b59b6"></stop></linearGradient><linearGradient id="93" x1="0%" y1="0%" x2="100%" y2="0%"><stop offset="0%" stop-color="#f9d423"></stop> <stop offset="100%" stop-color="#f83600"></stop></linearGradient><linearGradient id="94" x1="0%" y1="0%" x2="100%" y2="0%"><stop offset="0%" stop-color="#0064d2"></stop> <stop offset="100%" stop-color="#1cb0f6"></stop></linearGradient><linearGradient id="95" x1="0%" y1="0%" x2="100%" y2="0%"><stop offset="0%" stop-color="#f00978"></stop> <stop offset="100%" stop-color="#3f51b1"></stop></linearGradient><linearGradient id="96" x1="0%" y1="0%" x2="100%" y2="0%"><stop offset="0%" stop-color="#7873f5"></stop> <stop offset="100%" stop-color="#ec77ab"></stop></linearGradient><linearGradient id="97" x1="0%" y1="0%" x2="100%" y2="0%"><stop offset="0%" stop-color="#f9d423"></stop> <stop offset="100%" stop-color="#e14fad"></stop></linearGradient><linearGradient id="98" x1="0%" y1="0%" x2="100%" y2="0%"><stop offset="0%" stop-color="#009efd"></stop> <stop offset="100%" stop-color="#2af598"></stop></linearGradient><linearGradient id="99" x1="0%" y1="0%" x2="100%" y2="0%"><stop offset="0%" stop-color="#ffcc00"></stop> <stop offset="100%" stop-color="#00b140"></stop></linearGradient><linearGradient id="100" x1="0%" y1="0%" x2="100%" y2="0%"><stop offset="0%" stop-color="#d51007"></stop> <stop offset="100%" stop-color="#ff8177"></stop></linearGradient><linearGradient id="102" x1="0%" y1="0%" x2="100%" y2="0%"><stop offset="0%" stop-color="#a2b6df"></stop> <stop offset="100%" stop-color="#0c3483"></stop></linearGradient><linearGradient id="103" x1="0%" y1="0%" x2="100%" y2="0%"><stop offset="0%" stop-color="#7ac5d8"></stop> <stop offset="100%" stop-color="#eea2a2"></stop></linearGradient><linearGradient id="104" x1="0%" y1="0%" x2="100%" y2="0%"><stop offset="0%" stop-color="#00ecbc"></stop> <stop offset="100%" stop-color="#007adf"></stop></linearGradient><linearGradient id="105" x1="0%" y1="0%" x2="100%" y2="0%"><stop offset="0%" stop-color="#b88746"></stop> <stop offset="100%" stop-color="#fdf5a6"></stop></linearGradient></defs><g fill="#333" class="icon-text-wrapper icon-svg-group iconsvg" transform="translate(81.97000122070312,75.81718063665558)"><g class="iconsvg-imagesvg" transform="translate(58.029998779296875,0)"><g><rect fill="#333" fill-opacity="0" stroke-width="2" x="0" y="0" width="60" height="60.04563468235859" class="image-rect"></rect> <svg x="0" y="0" width="60" height="60.04563468235859" filtersec="colorsb2621064414" class="image-svg-svg primary" style="overflow: visible;"><svg xmlns="http://www.w3.org/2000/svg" viewBox="0.0186874121427536 0.03168483451008797 71.8552474975586 71.91011047363281"><path d="M71.85 12.61c0 2.6.05 5.21 0 7.81-.09 3.42-2.1 4.7-5.32 4.78-5.32.13-7.43-.78-7.59-4.23-.26-5.67-.21-11.36 0-17 .1-2.56 1.76-4 4.53-3.93h3.55c3.35-.15 4.72 1.74 4.82 4.79.07 2.57.01 5.17.01 7.78zM71.86 41.53v4.27c0 5.63-1.08 6.68-6.6 6.67-5.29 0-6.45-1.15-6.47-6.47 0-3.43-.07-6.87 0-10.31.11-3.79 1.49-5.11 5.18-5.19 7.16-.16 7.86.53 7.87 7.83z" fill="#4c88ef"></path><path d="M13 60.69c0 1.18-.07 2.37 0 3.55.63 8.1-2.69 7.89-9.93 7.18-2.2-.21-3-2.2-3-4.24C0 62.93 0 58.67.08 54.43c.09-3.1 1.76-4.77 5-4.63h2.84c3.73.09 5 1.36 5.06 5.21.02 1.9.02 3.79.02 5.68z" fill="#e54c41"></path><path d="M19.6 44v-2.48c0-5.88 1-6.86 6.81-6.82 5.08 0 6.2 1.15 6.25 6.34v7.82c-.05 3.15-1.55 4.87-4.83 4.79h-3.2c-3.61-.14-4.85-1.37-5-5-.08-1.65-.03-3.15-.03-4.65z" fill="#f9be15"></path><path d="M52.14 62.47v2.84c0 5.46-.93 6.36-6.42 6.36s-6.35-.89-6.37-6.42c0-2.6-.05-5.21 0-7.81.08-2.83 1.5-4.4 4.44-4.37h3.2c3.88.08 5 1.2 5.11 5.13.07 1.42.04 2.8.04 4.27z" fill="#3fa95b"></path><path d="M71.85 64.66c0 6.14-.82 7-6.52 7s-6.55-1-6.54-7c0-5.86 1.05-6.93 6.73-6.92 5.33 0 6.33 1.09 6.33 6.92z" fill="#4c88ef"></path><path d="M26.23 58.71c5.35 0 6.42 1.08 6.42 6.47S31.34 72 26 71.94s-6.43-1.27-6.43-6.56c.02-5.52 1.18-6.68 6.66-6.67z" fill="#f8be18"></path><path d="M52.15 40.81c0 6.16-5.37 9.21-10.68 6.32a4 4 0 0 1-2-3.14c-.13-.93 0-1.89-.1-2.83-.56-8.43 2.93-8 9.85-7.16 3.67.47 2.78 4.29 2.93 6.81zM45.91 15.56c5.37 0 6.27.94 6.25 6.52 0 5.21-1 6.24-6.22 6.24-5.7 0-6.61-.9-6.59-6.56.01-5.34.93-6.2 6.56-6.2z" fill="#3fa95b"></path></svg></svg> </g></g> <g transform="translate(0,67.04563522338867)"><g fill-rule="" class="tp-name iconsvg-namesvg"><g transform="scale(1)"><g><path d="M8.98 0.33C11.91 0.33 15.44-0.69 15.44-3.27 15.44-5.25 13.37-5.61 12.94-5.61 12.01-5.61 12.04-3.8 9.74-3.8 7.49-3.8 6.6-5.48 6.6-7.16 8.75-7.16 16.93-7.49 16.93-13.53 16.93-16.24 15.31-18.48 10.72-18.48 2.21-18.48 0.92-10.72 0.92-7.39 0.92-1.39 5.15 0.33 8.98 0.33ZM9.6-14.09C10.72-14.09 11.29-13.27 11.29-12.38 11.29-10.76 9.41-9.83 6.7-9.8 6.93-11.68 7.66-14.09 9.6-14.09ZM29.7-3.89C29.7 0.07 28.68 2.31 25.77 2.31 22.44 2.31 23.1 0.17 21.58 0.17 20.33 0.17 18.71 0.92 18.71 2.61 18.71 4.46 21.05 6.44 25.67 6.44 31.85 6.44 33.96 3.53 34.58 0.56 35.54-3.93 36.04-13.63 36.04-14.75 36.04-17.39 35.05-18.15 32.77-18.15L31.25-18.15C30.99-18.15 30.86-18.08 30.82-17.82 30.79-17.56 30.72-15.71 30.69-15.77 30.23-17.29 29.07-18.48 26.47-18.48 20.16-18.48 18.64-12.67 18.64-8.45 18.64-3.27 21.09-0.99 24.72-0.99 27.06-0.99 28.61-1.95 29.7-3.89ZM26.93-5.38C25.15-5.38 24.45-6.47 24.45-8.65 24.45-9.97 24.72-14.09 27.95-14.09 29.57-14.09 30.39-13.07 30.39-10.43 30.39-8.78 30.06-5.38 26.93-5.38ZM45.24-15.11C45.24-17.09 44.65-18.15 41.84-18.15L40.79-18.15C40.26-18.15 39.9-17.75 39.86-17.13 39.53-12.87 39.17-8.91 39.17-7.19 39.17-2.67 41.42-0.99 44.65-0.99 46.3-0.99 48.48-1.42 49.86-3.89 49.86-1.25 49.34 2.31 46.04 2.31 42.31 2.31 42.9 0.17 42.01 0.17 40.26 0.17 38.64 0.92 38.64 2.61 38.64 4.72 41.88 6.44 46.33 6.44 50.56 6.44 54.75 4.88 55.18-0.96 55.9-10.89 56.17-14.52 56.17-15.41 56.17-17.59 54.62-18.15 52.8-18.15L51.61-18.15C51.25-18.15 50.92-17.95 50.89-17.49L50.36-11.32C50.06-7.76 48.77-5.41 46.73-5.41 45.54-5.41 44.62-6.24 44.62-7.89 44.62-9.24 45.24-13.1 45.24-15.11ZM67.91-13.7C69.89-13.7 70.32-14.59 70.42-15.91L70.55-17.69C70.55-18.02 70.36-18.15 70.03-18.15L66.56-18.15C66.63-19.01 66.66-19.67 66.66-20.1 66.66-21.68 66.07-23 64.22-23L63.26-23C62.67-23 61.68-19.73 61.05-18.15 59-18.15 58.74-16.96 58.67-15.84L58.58-14.16C58.58-13.86 58.61-13.7 58.94-13.7L60.69-13.7C60.23-7.46 59.93-5.51 59.93-4.16 59.93-1.16 61.41 0.33 64.58 0.33 67.78 0.33 68.97-1.19 68.97-3.6 68.97-4.85 68.64-5.08 68.34-5.08 67.75-5.08 67.39-4.22 66.4-4.22 65.8-4.22 65.54-4.52 65.54-5.64 65.54-6.9 65.87-10.4 66.17-13.7ZM79.63 0.33C82.57 0.33 86.1-0.69 86.1-3.27 86.1-5.25 84.02-5.61 83.59-5.61 82.67-5.61 82.7-3.8 80.39-3.8 78.14-3.8 77.25-5.48 77.25-7.16 79.4-7.16 87.58-7.49 87.58-13.53 87.58-16.24 85.97-18.48 81.38-18.48 72.86-18.48 71.58-10.72 71.58-7.39 71.58-1.39 75.8 0.33 79.63 0.33ZM80.26-14.09C81.38-14.09 81.94-13.27 81.94-12.38 81.94-10.76 80.06-9.83 77.35-9.8 77.58-11.68 78.31-14.09 80.26-14.09ZM97.88-4.06C95.73-4.06 94.78-5.12 94.78-8.25 94.78-10 95.07-14.09 97.81-14.09 99.3-14.09 99.3-12.87 99.33-10.72 99.33-10.33 99.53-10.26 100.19-10.26 102.89-10.26 104.48-11.35 104.48-13.73 104.48-16.37 102.53-18.48 98.24-18.48 90.32-18.48 89.17-11.32 89.17-7.92 89.17-1.49 93.36 0.33 96.69 0.33 99.73 0.33 101.64-1.39 102.04-1.85 102.47-2.34 103.09-4.19 103.09-4.79 103.09-5.41 102.8-5.78 102.33-5.78 101.57-5.78 100.45-4.06 97.88-4.06ZM117.28-4.09C117.25-3.73 117.22-3.33 117.22-2.9 117.22-1.06 117.84 0 120.61 0L121.67 0C122.43 0 122.5-0.07 122.56-1.02 122.83-5.02 123.45-11.12 123.45-12.51 123.45-17 121.7-18.48 118.01-18.48 115.57-18.48 114.08-17.75 112.76-15.58 112.99-18.48 113.16-20.79 113.16-21.58 113.16-23.07 112.36-24.42 109.72-24.42L108.44-24.42C108.14-24.42 108.01-24.42 107.91-24.32 107.81-24.22 107.78-23.99 107.75-23.46 106.95-9.37 106.29-5.12 106.29-3.14 106.29-1.12 106.95 0 109.66 0L110.85 0C111.41 0 111.57-0.13 111.57-0.66 111.57-1.25 112.07-6.8 112.2-8.61 112.43-11.88 113.78-14.06 115.9-14.06 117.48-14.06 117.91-13 117.91-11.85 117.91-10.76 117.55-7 117.28-4.09ZM129-5.87C126.52-5.87 125.76-4.13 125.76-2.38 125.76-0.86 126.32 0.33 128.34 0.33 131.04 0.33 131.57-1.95 131.57-3.3 131.57-4.92 130.84-5.87 129-5.87ZM143.52-11.42C145.5-11.42 145.93-12.31 146.03-13.63L146.16-15.41C146.16-15.74 145.96-15.87 145.63-15.87L141.83-15.87C142.06-18.18 142.63-20.46 144.41-20.46 145.6-20.46 145.69-19.57 145.69-18.12 145.69-17.72 145.89-17.66 146.55-17.66 148.96-17.66 150.51-18.55 150.51-20.82 150.51-23.07 148.83-24.75 144.41-24.75 139.89-24.75 137.15-22.9 136.59-17.19L136.45-15.87C134.57-15.81 134.34-14.65 134.28-13.56 134.24-12.9 134.18-12.11 134.18-11.78 134.18-11.55 134.28-11.42 134.54-11.42L136.09-11.42C135.83-7.82 135.53-3.93 135.53-3.37 135.53-1.12 136.36 0 138.73 0L139.92 0C140.48 0 140.61-0.13 140.65-0.66 140.65-0.86 141.21-7.52 141.5-11.42ZM155.86-15.11C155.86-17.09 155.27-18.15 152.46-18.15L151.4-18.15C150.88-18.15 150.51-17.75 150.48-17.13 150.15-12.87 149.79-8.91 149.79-7.19 149.79-2.67 152.03-0.99 155.27-0.99 156.91-0.99 159.09-1.42 160.48-3.89 160.48-1.25 159.95 2.31 156.65 2.31 152.92 2.31 153.52 0.17 152.63 0.17 150.88 0.17 149.26 0.92 149.26 2.61 149.26 4.72 152.49 6.44 156.95 6.44 161.17 6.44 165.36 4.88 165.79-0.96 166.52-10.89 166.78-14.52 166.78-15.41 166.78-17.59 165.23-18.15 163.42-18.15L162.23-18.15C161.87-18.15 161.53-17.95 161.5-17.49L160.97-11.32C160.68-7.76 159.39-5.41 157.34-5.41 156.16-5.41 155.23-6.24 155.23-7.89 155.23-9.24 155.86-13.1 155.86-15.11ZM174.27 0C174.83 0 174.97-0.13 175-0.66 175.76-10.13 176.06-13.86 176.06-15.15 176.06-17.03 175.4-18.15 172.69-18.15L171.4-18.15C171.1-18.15 170.97-18.15 170.87-18.05 170.78-17.95 170.74-17.72 170.71-17.19 170.02-7.49 169.72-4.49 169.72-3.14 169.72-1.12 170.38 0 173.09 0ZM170.74-22.04C170.74-20.63 171.67-19.93 173.41-19.93 175.72-19.93 176.98-21.15 176.98-22.77 176.98-24.06 176.15-24.88 174.27-24.88 172.13-24.88 170.74-23.79 170.74-22.04Z" transform="translate(-0.9200000166893005, 24.8799991607666)"></path></g> </g></g> </g></g><defs v-gra="od"></defs></g></svg>