<svg color-interpolation-filters="sRGB" height="2401.789617" preserveAspectRatio="xMidYMid meet" viewBox="139.4 94.37718048 61.2 61.24563522" width="2400" xmlns="http://www.w3.org/2000/svg"><g transform="translate(140 94.977182)"><path d="m0 0h60v60.045635h-60z" fill="none" stroke-width="2"/><svg height="60.045635" overflow="visible" width="60"><svg viewBox=".01868741 .03168483 71.8552475 71.91011047" xmlns="http://www.w3.org/2000/svg"><path d="m71.85 12.61c0 2.6.05 5.21 0 7.81-.09 3.42-2.1 4.7-5.32 4.78-5.32.13-7.43-.78-7.59-4.23-.26-5.67-.21-11.36 0-17 .1-2.56 1.76-4 4.53-3.93h3.55c3.35-.15 4.72 1.74 4.82 4.79.07 2.57.01 5.17.01 7.78zm.01 28.92v4.27c0 5.63-1.08 6.68-6.6 6.67-5.29 0-6.45-1.15-6.47-6.47 0-3.43-.07-6.87 0-10.31.11-3.79 1.49-5.11 5.18-5.19 7.16-.16 7.86.53 7.87 7.83z" fill="#4c88ef"/><path d="m13 60.69c0 1.18-.07 2.37 0 3.55.63 8.1-2.69 7.89-9.93 7.18-2.2-.21-3-2.2-3-4.24-.07-4.25-.07-8.51.01-12.75.09-3.1 1.76-4.77 5-4.63h2.84c3.73.09 5 1.36 5.06 5.21.02 1.9.02 3.79.02 5.68z" fill="#e54c41"/><path d="m19.6 44v-2.48c0-5.88 1-6.86 6.81-6.82 5.08 0 6.2 1.15 6.25 6.34v7.82c-.05 3.15-1.55 4.87-4.83 4.79h-3.2c-3.61-.14-4.85-1.37-5-5-.08-1.65-.03-3.15-.03-4.65z" fill="#f9be15"/><path d="m52.14 62.47v2.84c0 5.46-.93 6.36-6.42 6.36s-6.35-.89-6.37-6.42c0-2.6-.05-5.21 0-7.81.08-2.83 1.5-4.4 4.44-4.37h3.2c3.88.08 5 1.2 5.11 5.13.07 1.42.04 2.8.04 4.27z" fill="#3fa95b"/><path d="m71.85 64.66c0 6.14-.82 7-6.52 7s-6.55-1-6.54-7c0-5.86 1.05-6.93 6.73-6.92 5.33 0 6.33 1.09 6.33 6.92z" fill="#4c88ef"/><path d="m26.23 58.71c5.35 0 6.42 1.08 6.42 6.47s-1.31 6.82-6.65 6.76-6.43-1.27-6.43-6.56c.02-5.52 1.18-6.68 6.66-6.67z" fill="#f8be18"/><path d="m52.15 40.81c0 6.16-5.37 9.21-10.68 6.32a4 4 0 0 1 -2-3.14c-.13-.93 0-1.89-.1-2.83-.56-8.43 2.93-8 9.85-7.16 3.67.47 2.78 4.29 2.93 6.81zm-6.24-25.25c5.37 0 6.27.94 6.25 6.52 0 5.21-1 6.24-6.22 6.24-5.7 0-6.61-.9-6.59-6.56.01-5.34.93-6.2 6.56-6.2z" fill="#3fa95b"/></svg></svg></g></svg>